<svg width="94" height="34" viewBox="0 0 94 34" fill="none" xmlns="http://www.w3.org/2000/svg">
<path d="M16.12 10.968C16.9733 10.968 17.72 11.1333 18.36 11.464C19 11.784 19.5013 12.2213 19.864 12.776C20.2373 13.32 20.4347 13.9387 20.456 14.632C20.456 14.8347 20.376 14.936 20.216 14.936L18.136 15.064C17.9867 15.0747 17.9067 14.9467 17.896 14.68C17.8533 14.168 17.688 13.7467 17.4 13.416C17.1227 13.0853 16.6907 12.92 16.104 12.92C15.5813 12.92 15.128 13.0427 14.744 13.288C14.3707 13.5333 14.0507 13.864 13.784 14.28C13.528 14.6853 13.3253 15.1387 13.176 15.64C13.0267 16.1307 12.9147 16.632 12.84 17.144C12.776 17.656 12.744 18.136 12.744 18.584C12.744 19.4693 12.9093 20.1093 13.24 20.504C13.5813 20.8987 14.0933 21.096 14.776 21.096C15.416 21.096 15.992 20.936 16.504 20.616C17.016 20.296 17.4533 19.7787 17.816 19.064C17.88 18.9147 18.0133 18.8667 18.216 18.92L19.88 19.336C19.9973 19.368 20.0027 19.5333 19.896 19.832C19.8 20.0347 19.656 20.28 19.464 20.568C19.2827 20.856 19.0427 21.1547 18.744 21.464C18.456 21.7627 18.104 22.04 17.688 22.296C17.2827 22.552 16.824 22.76 16.312 22.92C15.8 23.08 15.2293 23.16 14.6 23.16C13.608 23.16 12.7547 22.952 12.04 22.536C11.336 22.1093 10.7973 21.5173 10.424 20.76C10.0613 20.0027 9.88 19.1227 9.88 18.12C9.88 17.3947 9.96 16.6853 10.12 15.992C10.2907 15.288 10.5413 14.6373 10.872 14.04C11.2027 13.432 11.6187 12.8987 12.12 12.44C12.6213 11.9707 13.2027 11.608 13.864 11.352C14.536 11.096 15.288 10.968 16.12 10.968Z" fill="#0078FF"/>
<path d="M21.1958 23C21.0838 23 21.0044 22.9673 20.9578 22.902C20.9111 22.8273 20.8924 22.7433 20.9018 22.65L21.8678 15.776C21.8771 15.692 21.8958 15.6407 21.9238 15.622C21.9518 15.594 21.9984 15.58 22.0638 15.58H23.7298C23.8044 15.58 23.8604 15.6033 23.8978 15.65C23.9351 15.6967 23.9444 15.7713 23.9258 15.874L23.8278 16.504C23.8184 16.5973 23.8278 16.6487 23.8558 16.658C23.8931 16.658 23.9444 16.63 24.0098 16.574C24.2244 16.3407 24.4578 16.14 24.7097 15.972C24.9711 15.804 25.2278 15.6733 25.4798 15.58C25.7411 15.4867 25.9791 15.44 26.1938 15.44C26.3804 15.44 26.5204 15.454 26.6138 15.482C26.7164 15.51 26.7631 15.566 26.7538 15.65L26.5298 17.218C26.5204 17.3207 26.5018 17.386 26.4738 17.414C26.4551 17.442 26.4178 17.4513 26.3618 17.442C26.1751 17.414 25.9931 17.3953 25.8158 17.386C25.6478 17.3767 25.5124 17.372 25.4098 17.372C25.2231 17.372 25.0271 17.4093 24.8218 17.484C24.6258 17.5493 24.4391 17.6473 24.2618 17.778C24.0844 17.8993 23.9351 18.0393 23.8138 18.198C23.7018 18.3473 23.6364 18.4967 23.6178 18.646L23.0438 22.734C23.0251 22.8553 22.9924 22.93 22.9458 22.958C22.8991 22.986 22.8104 23 22.6798 23H21.1958ZM27.0727 25.31C26.8114 25.31 26.6247 25.2913 26.5127 25.254C26.4007 25.2167 26.354 25.142 26.3727 25.03L26.5267 23.952C26.536 23.8867 26.578 23.8353 26.6527 23.798C26.7367 23.7607 26.858 23.742 27.0167 23.742H27.9407C28.118 23.742 28.2814 23.7047 28.4307 23.63C28.58 23.5553 28.706 23.4573 28.8087 23.336C28.9207 23.2147 28.9954 23.0887 29.0327 22.958C29.0794 22.8273 29.0887 22.706 29.0607 22.594L27.2687 15.972C27.2034 15.7107 27.2734 15.58 27.4787 15.58H29.3967C29.546 15.58 29.63 15.6407 29.6487 15.762L30.6287 19.934C30.6474 20.046 30.6847 20.102 30.7407 20.102C30.7967 20.0927 30.8527 20.0273 30.9087 19.906L32.9807 15.86C33.0367 15.7573 33.0927 15.6873 33.1487 15.65C33.2047 15.6033 33.27 15.58 33.3447 15.58H34.5487C34.726 15.58 34.7587 15.6687 34.6467 15.846L30.7687 22.944C30.498 23.4293 30.2367 23.826 29.9847 24.134C29.7327 24.442 29.4667 24.68 29.1867 24.848C28.9067 25.016 28.594 25.1327 28.2487 25.198C27.9127 25.2727 27.5207 25.31 27.0727 25.31ZM34.5964 25.31C34.531 25.31 34.489 25.2773 34.4704 25.212C34.4517 25.1467 34.4517 25.072 34.4704 24.988L35.7444 15.818C35.763 15.7153 35.7864 15.65 35.8144 15.622C35.8517 15.594 35.931 15.58 36.0524 15.58H37.5924C37.695 15.58 37.7697 15.594 37.8164 15.622C37.8724 15.65 37.891 15.7153 37.8724 15.818L37.8164 16.238C37.807 16.294 37.8257 16.3173 37.8724 16.308C37.9284 16.2987 37.989 16.266 38.0544 16.21C38.2317 16.0887 38.4137 15.9673 38.6004 15.846C38.7964 15.7247 39.0157 15.6267 39.2584 15.552C39.5104 15.4773 39.7997 15.44 40.1264 15.44C40.845 15.44 41.4377 15.6827 41.9044 16.168C42.371 16.6533 42.6044 17.3907 42.6044 18.38C42.6044 18.912 42.539 19.458 42.4084 20.018C42.2777 20.5687 42.0724 21.082 41.7924 21.558C41.5217 22.034 41.1624 22.4167 40.7144 22.706C40.2664 22.9953 39.725 23.14 39.0904 23.14C38.7077 23.14 38.3624 23.07 38.0544 22.93C37.7464 22.7807 37.485 22.58 37.2704 22.328C37.177 22.2253 37.1024 22.2113 37.0464 22.286C36.9997 22.3513 36.967 22.4447 36.9484 22.566L36.5984 25.128C36.589 25.212 36.5704 25.2633 36.5424 25.282C36.5237 25.3007 36.477 25.31 36.4024 25.31H34.5964ZM38.3204 21.782C38.7217 21.782 39.0577 21.6653 39.3284 21.432C39.599 21.1893 39.8137 20.886 39.9724 20.522C40.1404 20.1487 40.2617 19.7613 40.3364 19.36C40.4204 18.9587 40.4624 18.59 40.4624 18.254C40.4624 17.89 40.4064 17.6053 40.2944 17.4C40.1917 17.1853 40.047 17.0313 39.8604 16.938C39.683 16.8447 39.473 16.798 39.2304 16.798C38.9597 16.798 38.703 16.8587 38.4604 16.98C38.2177 17.1013 38.017 17.2507 37.8584 17.428C37.709 17.6053 37.625 17.7873 37.6064 17.974L37.1304 21.124C37.289 21.3387 37.4617 21.502 37.6484 21.614C37.835 21.726 38.059 21.782 38.3204 21.782ZM46.0172 23C45.4199 23 44.9485 22.8693 44.6032 22.608C44.2579 22.3373 44.0852 21.9593 44.0852 21.474C44.0852 21.418 44.0852 21.362 44.0852 21.306C44.0852 21.25 44.0899 21.1893 44.0992 21.124L44.6592 17.232C44.6685 17.1667 44.6499 17.1247 44.6032 17.106C44.5659 17.078 44.5099 17.064 44.4352 17.064H43.5672C43.4459 17.064 43.3945 16.9613 43.4132 16.756L43.5672 15.734C43.5765 15.6593 43.5952 15.6173 43.6232 15.608C43.6605 15.5893 43.7165 15.58 43.7912 15.58H44.7572C44.8039 15.58 44.8459 15.5613 44.8832 15.524C44.9299 15.4773 44.9579 15.426 44.9672 15.37L45.4712 13.242C45.4992 13.1207 45.5879 13.06 45.7372 13.06H47.2492C47.3145 13.06 47.3612 13.0833 47.3892 13.13C47.4172 13.1767 47.4265 13.2607 47.4172 13.382L47.1092 15.412C47.0999 15.4587 47.1092 15.496 47.1372 15.524C47.1652 15.552 47.2025 15.566 47.2492 15.566H48.6912C48.7659 15.566 48.8265 15.58 48.8732 15.608C48.9292 15.636 48.9479 15.6873 48.9292 15.762L48.7752 16.882C48.7659 16.9567 48.7425 17.008 48.7052 17.036C48.6772 17.0547 48.6119 17.064 48.5092 17.064H47.0252C46.9039 17.064 46.8292 17.1387 46.8012 17.288L46.3252 20.676C46.3159 20.7227 46.3112 20.7647 46.3112 20.802C46.3112 20.8393 46.3112 20.8813 46.3112 20.928C46.3112 21.1427 46.3719 21.292 46.4932 21.376C46.6239 21.4507 46.8292 21.488 47.1092 21.488H47.8652C47.9305 21.488 47.9819 21.5207 48.0192 21.586C48.0659 21.6513 48.0845 21.7167 48.0752 21.782L47.9352 22.65C47.9165 22.8273 47.8279 22.9253 47.6692 22.944C47.5105 22.9533 47.3285 22.9627 47.1232 22.972C46.9272 22.9813 46.7312 22.9907 46.5352 23C46.3392 23 46.1665 23 46.0172 23ZM52.3178 23.14C51.6364 23.14 51.0438 23.0047 50.5398 22.734C50.0451 22.454 49.6624 22.0713 49.3918 21.586C49.1211 21.0913 48.9858 20.522 48.9858 19.878C48.9858 19.2247 49.0978 18.6273 49.3218 18.086C49.5551 17.5353 49.8678 17.064 50.2598 16.672C50.6518 16.28 51.1044 15.9767 51.6178 15.762C52.1404 15.5473 52.6864 15.44 53.2558 15.44C53.9371 15.44 54.5251 15.5847 55.0198 15.874C55.5238 16.154 55.9064 16.546 56.1678 17.05C56.4384 17.5447 56.5738 18.1187 56.5738 18.772C56.5738 19.6027 56.3871 20.3493 56.0138 21.012C55.6404 21.6747 55.1318 22.1973 54.4878 22.58C53.8438 22.9533 53.1204 23.14 52.3178 23.14ZM52.3738 21.712C52.7564 21.712 53.1018 21.586 53.4098 21.334C53.7271 21.0727 53.9791 20.6947 54.1658 20.2C54.3524 19.696 54.4458 19.08 54.4458 18.352C54.4458 17.848 54.3431 17.47 54.1378 17.218C53.9324 16.9567 53.6291 16.826 53.2278 16.826C52.8451 16.826 52.4951 16.9567 52.1778 17.218C51.8604 17.4793 51.6084 17.862 51.4218 18.366C51.2351 18.87 51.1418 19.486 51.1418 20.214C51.1418 20.7087 51.2444 21.082 51.4498 21.334C51.6551 21.586 51.9631 21.712 52.3738 21.712ZM71.3635 12.612C71.5129 12.612 71.5922 12.6493 71.6015 12.724C71.6202 12.7893 71.5922 12.9153 71.5175 13.102L67.2895 22.762C67.2335 22.8647 67.1775 22.93 67.1215 22.958C67.0749 22.986 66.9909 23 66.8695 23H65.3575C65.2362 23 65.1429 22.986 65.0775 22.958C65.0122 22.9207 64.9749 22.8507 64.9655 22.748L64.0275 16.574C64.0182 16.5087 63.9995 16.476 63.9715 16.476C63.9529 16.476 63.9249 16.5087 63.8875 16.574L61.2135 22.762C61.1669 22.8647 61.1155 22.93 61.0595 22.958C61.0035 22.986 60.9149 23 60.7935 23H59.2115C58.9875 23 58.8615 22.9067 58.8335 22.72L57.3215 13.004C57.3029 12.8733 57.3122 12.7753 57.3495 12.71C57.3962 12.6447 57.4895 12.612 57.6295 12.612H59.4075C59.5289 12.612 59.6129 12.64 59.6595 12.696C59.7062 12.752 59.7342 12.822 59.7435 12.906L60.6535 19.234C60.6722 19.318 60.6955 19.3647 60.7235 19.374C60.7515 19.374 60.7842 19.3273 60.8215 19.234L63.5515 12.794C63.5889 12.7193 63.6309 12.6727 63.6775 12.654C63.7242 12.626 63.8082 12.612 63.9295 12.612H65.4695C65.5909 12.612 65.6655 12.64 65.6935 12.696C65.7309 12.7427 65.7542 12.8127 65.7635 12.906L66.7015 19.318C66.7109 19.374 66.7342 19.402 66.7715 19.402C66.8089 19.402 66.8415 19.3647 66.8695 19.29L69.5715 12.794C69.5995 12.7193 69.6369 12.6727 69.6835 12.654C69.7302 12.626 69.8142 12.612 69.9355 12.612H71.3635ZM74.703 22.314C74.4043 22.6033 74.0543 22.8133 73.653 22.944C73.261 23.0747 72.8457 23.14 72.407 23.14C71.7443 23.14 71.2263 22.972 70.853 22.636C70.489 22.2907 70.307 21.852 70.307 21.32C70.307 20.788 70.4423 20.3447 70.713 19.99C70.993 19.626 71.3477 19.332 71.777 19.108C72.2157 18.884 72.6917 18.7207 73.205 18.618C73.7277 18.5153 74.227 18.4593 74.703 18.45L75.207 18.408C75.3843 18.408 75.487 18.3193 75.515 18.142L75.557 17.848C75.5663 17.8107 75.571 17.7733 75.571 17.736C75.571 17.6893 75.571 17.652 75.571 17.624C75.571 17.344 75.487 17.134 75.319 16.994C75.151 16.854 74.913 16.784 74.605 16.784C74.3063 16.784 74.0123 16.8447 73.723 16.966C73.4337 17.0873 73.1817 17.316 72.967 17.652C72.939 17.6987 72.9017 17.7313 72.855 17.75C72.8177 17.7593 72.7523 17.7547 72.659 17.736L71.301 17.414C71.245 17.3953 71.1983 17.3533 71.161 17.288C71.133 17.2227 71.1563 17.1107 71.231 16.952C71.539 16.4293 71.9917 16.0467 72.589 15.804C73.1863 15.5613 73.8957 15.44 74.717 15.44C75.417 15.44 75.9817 15.524 76.411 15.692C76.8403 15.86 77.153 16.0933 77.349 16.392C77.545 16.6907 77.643 17.0407 77.643 17.442C77.643 17.5073 77.6383 17.5727 77.629 17.638C77.629 17.7033 77.6243 17.7733 77.615 17.848L76.915 22.748C76.9057 22.8693 76.887 22.944 76.859 22.972C76.831 22.9907 76.7657 23 76.663 23H75.221C75.1277 23 75.067 22.9673 75.039 22.902C75.011 22.8367 74.9923 22.748 74.983 22.636L74.997 22.272C74.9783 22.104 74.8803 22.118 74.703 22.314ZM75.305 19.626C75.3143 19.5513 75.3097 19.5047 75.291 19.486C75.2817 19.458 75.2397 19.4487 75.165 19.458L74.661 19.5C74.465 19.5093 74.241 19.542 73.989 19.598C73.737 19.654 73.4943 19.738 73.261 19.85C73.0277 19.9527 72.8317 20.0973 72.673 20.284C72.5237 20.4707 72.449 20.704 72.449 20.984C72.449 21.1987 72.5283 21.376 72.687 21.516C72.8457 21.656 73.0697 21.726 73.359 21.726C73.6203 21.726 73.8537 21.6887 74.059 21.614C74.2737 21.5393 74.4557 21.446 74.605 21.334C74.7637 21.2127 74.8943 21.0867 74.997 20.956C75.0997 20.816 75.1603 20.676 75.179 20.536L75.305 19.626ZM85.8732 15.58C85.9666 15.58 86.0319 15.622 86.0692 15.706C86.1159 15.79 86.1206 15.874 86.0832 15.958L82.3452 22.762C82.2892 22.8647 82.2286 22.93 82.1632 22.958C82.1072 22.986 82.0186 23 81.8972 23H80.9032C80.7912 23 80.6979 22.9673 80.6232 22.902C80.5486 22.8367 80.5066 22.7527 80.4972 22.65L78.6632 15.86C78.6259 15.6733 78.6912 15.58 78.8592 15.58H80.6372C80.7119 15.58 80.7772 15.6127 80.8332 15.678C80.8892 15.734 80.9219 15.7947 80.9312 15.86L81.9672 20.004C82.0139 20.144 82.0886 20.102 82.1912 19.878L84.3612 15.748C84.4359 15.636 84.5339 15.58 84.6552 15.58H85.8732ZM89.1781 23.14C88.5061 23.14 87.9181 23.0047 87.4141 22.734C86.9101 22.454 86.5134 22.0713 86.2241 21.586C85.9441 21.1007 85.8041 20.536 85.8041 19.892C85.8041 19.3133 85.9068 18.7627 86.1121 18.24C86.3268 17.708 86.6208 17.232 86.9941 16.812C87.3768 16.3827 87.8248 16.0467 88.3381 15.804C88.8608 15.5613 89.4348 15.44 90.0601 15.44C90.7041 15.44 91.2641 15.5707 91.7401 15.832C92.2254 16.084 92.5988 16.4527 92.8601 16.938C93.1308 17.4233 93.2661 18.0113 93.2661 18.702C93.2661 18.8233 93.2614 18.9493 93.2521 19.08C93.2428 19.2107 93.2288 19.346 93.2101 19.486C93.2008 19.5607 93.1728 19.6167 93.1261 19.654C93.0794 19.682 93.0001 19.696 92.8881 19.696H88.1701C88.0768 19.696 88.0161 19.7567 87.9881 19.878C87.9601 19.9993 87.9461 20.1393 87.9461 20.298C87.9461 20.746 88.0908 21.0867 88.3801 21.32C88.6694 21.5533 89.0381 21.67 89.4861 21.67C89.8408 21.67 90.1721 21.6 90.4801 21.46C90.7881 21.3107 91.0914 21.0727 91.3901 20.746C91.4368 20.6993 91.4834 20.6807 91.5301 20.69C91.5861 20.69 91.6468 20.704 91.7121 20.732L92.6361 21.166C92.8228 21.25 92.8554 21.3713 92.7341 21.53C92.3608 21.9407 91.9921 22.2673 91.6281 22.51C91.2734 22.7433 90.8954 22.9067 90.4941 23C90.1021 23.0933 89.6634 23.14 89.1781 23.14ZM90.9561 18.576C91.0494 18.576 91.1288 18.5387 91.1941 18.464C91.2594 18.38 91.2921 18.2353 91.2921 18.03C91.2921 17.694 91.1894 17.4 90.9841 17.148C90.7881 16.8867 90.4848 16.756 90.0741 16.756C89.7661 16.756 89.4768 16.8353 89.2061 16.994C88.9354 17.1527 88.7114 17.372 88.5341 17.652C88.3568 17.9227 88.2494 18.2307 88.2121 18.576H90.9561Z" fill="white"/>
<path d="M27.5 11.5L7.64443 2.54553C4.99715 1.35165 2 3.28784 2 6.19187V28.4503C2 31.1805 4.67479 33.1084 7.26491 32.245L21.5 27.5" stroke="#0078FF" stroke-width="3"/>
<circle cx="27.5" cy="11.5" r="1.5" fill="#0078FF"/>
<circle cx="21.5" cy="27.5" r="1.5" fill="#0078FF"/>
</svg>
